<svg class="Layer_1" xmlns="http://www.w3.org/2000/svg" viewBox="0 0 800 800" enable-background="new 0 0 800 800"><circle class="animated svg-main-circle" stroke="#000" stroke-width="14" stroke-miterlimit="10" cx="390" cy="430" r="308" fill="none"/><path class="animated svg-line-lg-1" stroke="#000" stroke-width="9" stroke-miterlimit="10" fill="none" d="M234 205l-72 170"/><path class="animated svg-line-lg-2" stroke="#000" stroke-width="9" stroke-miterlimit="10" fill="none" d="M234 647l250-427"/><path class="animated svg-line-lg-3" stroke="#000" stroke-width="9" stroke-miterlimit="10" fill="none" d="M634 447L484 585"/><path class="animated svg-line-lg-4" stroke="#000" stroke-width="9" stroke-miterlimit="10" fill="none" d="M634 447L234 647"/><path class="animated svg-line-lg-5" stroke="#000" stroke-width="9" stroke-miterlimit="10" fill="none" d="M484 585l-250 62"/><path class="animated svg-line-lg-6" stroke="#000" stroke-width="9" stroke-miterlimit="10" fill="none" d="M334 423L234 205"/><path class="animated svg-line-lg-7" stroke="#000" stroke-width="9" stroke-miterlimit="10" fill="none" d="M484 220v365"/><path class="animated svg-line-md-1" stroke="#000" stroke-width="7" stroke-miterlimit="10" fill="none" d="M363 305.7L217.5 540.5"/><path class="animated svg-line-md-2" stroke="#000" stroke-width="7" stroke-miterlimit="10" fill="none" d="M77.5 188.5l334 516"/><path class="animated svg-line-md-3" stroke="#000" stroke-width="7" stroke-miterlimit="10" fill="none" d="M441.5 449.5l-224 91"/><path class="animated svg-line-md-4" stroke="#000" stroke-width="7" stroke-miterlimit="10" fill="none" d="M28.5 468.5l49-280"/><path class="animated svg-line-md-5" stroke="#000" stroke-width="7" stroke-miterlimit="10" fill="none" d="M411.5 704.5l-383-236"/><path class="animated svg-line-md-6" stroke="#000" stroke-width="7" stroke-miterlimit="10" fill="none" d="M361.5 305.7l80 143.8"/><path class="animated svg-line-md-7" stroke="#000" stroke-width="7" stroke-miterlimit="10" fill="none" d="M673.7 413l-232.2 36.5"/><path class="animated svg-line-sm-1" stroke="#000" stroke-width="5" stroke-miterlimit="10" fill="none" d="M340 63l392.5 258.5"/><path class="animated svg-line-sm-2" stroke="#000" stroke-width="5" stroke-miterlimit="10" fill="none" d="M294.2 171.2l-63.7 142.3"/><path class="animated svg-line-sm-3" stroke="#000" stroke-width="5" stroke-miterlimit="10" fill="none" d="M230.5 313.5l541 90"/><path class="animated svg-line-sm-4" stroke="#000" stroke-width="5" stroke-miterlimit="10" fill="none" d="M294.2 172.5l477.3 231"/><path class="animated svg-line-sm-5" stroke="#000" stroke-width="5" stroke-miterlimit="10" fill="none" d="M771.5 403.5L464 661"/><path class="animated svg-line-sm-6" stroke="#000" stroke-width="5" stroke-miterlimit="10" fill="none" d="M585.2 399L363 563.5"/><path class="animated svg-line-sm-7" stroke="#000" stroke-width="5" stroke-miterlimit="10" fill="none" d="M413 172.5L284 261"/><path class="animated svg-line-sm-8" stroke="#000" stroke-width="5" stroke-miterlimit="10" fill="none" d="M546.5 261.5L549 653"/><path class="animated svg-line-sm-9" stroke="#000" stroke-width="5" stroke-miterlimit="10" fill="none" d="M251.5 369.5l111.5 194"/><circle class="animated svg-target-point-1 fadeInLeftBig" stroke="#000" stroke-miterlimit="10" cx="413.2" cy="172.2" r="19" fill="none"/><circle class="animated svg-target-point-2 fadeInLeftBig" stroke="#000" stroke-miterlimit="10" cx="251.2" cy="369.2" r="19" fill="none"/><circle class="animated svg-target-point-3 fadeInLeftBig" stroke="#000" stroke-miterlimit="10" cx="585.2" cy="399" r="19" fill="none"/><circle class="animated svg-target-point-4 fadeInLeftBig" stroke="#000" stroke-miterlimit="10" cx="464.2" cy="661.2" r="19" fill="none"/><circle class="animated svg-target-point-5 fadeInLeftBig" stroke="#000" stroke-miterlimit="10" cx="217.5" cy="540.5" r="19" fill="none"/><circle class="animated svg-data-point-lg-1" cx="234.5" cy="205.2" r="12.5"/><circle class="animated svg-data-point-lg-2" cx="161.5" cy="375.2" r="12.5"/><circle class="animated svg-data-point-lg-3" cx="483.5" cy="220.2" r="12.5"/><circle class="animated svg-data-point-lg-4" cx="484.5" cy="585.2" r="12.5"/><circle class="animated svg-data-point-lg-5" cx="634.5" cy="447.2" r="12.5"/><circle class="animated svg-data-point-lg-6" cx="234.5" cy="647.2" r="12.5"/><circle class="animated svg-data-point-lg-7" cx="334.5" cy="423.2" r="12.5"/><circle class="animated svg-data-point-md-1" cx="441.7" cy="449" r="10"/><circle class="animated svg-data-point-md-2" cx="673.7" cy="413" r="10"/><circle class="animated svg-data-point-md-3" cx="363" cy="305.7" r="10"/><circle class="animated svg-data-point-md-4" cx="77.7" cy="188" r="10"/><circle class="animated svg-data-point-md-5" cx="411.7" cy="704" r="10"/><circle class="animated svg-data-point-md-6" cx="28.7" cy="468" r="10"/><circle class="animated svg-data-point-md-7" cx="217.7" cy="540" r="10"/><circle class="animated svg-data-point-sm-1" cx="294.2" cy="171.2" r="7.5"/><circle class="animated svg-data-point-sm-2" cx="284.2" cy="261.2" r="7.5"/><circle class="animated svg-data-point-sm-3" cx="413.2" cy="172.2" r="7.5"/><circle class="animated svg-data-point-sm-4" cx="340.2" cy="63.2" r="7.5"/><circle class="animated svg-data-point-sm-5" cx="732.2" cy="321.2" r="7.5"/><circle class="animated svg-data-point-sm-6" cx="771.2" cy="403.2" r="7.5"/><circle class="animated svg-data-point-sm-7" cx="464.2" cy="661.2" r="7.5"/><circle class="animated svg-data-point-sm-8" cx="549.2" cy="653.2" r="7.5"/><circle class="animated svg-data-point-sm-9" cx="546.2" cy="261.2" r="7.5"/><circle class="animated svg-data-point-sm-10" cx="363.2" cy="563.2" r="7.5"/><circle class="animated svg-data-point-sm-11" cx="585.2" cy="399.2" r="7.5"/><circle class="animated svg-data-point-sm-12" cx="230.2" cy="313.2" r="7.5"/><circle class="animated svg-data-point-sm-13" cx="251.2" cy="369.2" r="7.5"/></svg>