<?xml version="1.0" encoding="utf-8"?>
<!-- Generator: Adobe Illustrator 18.0.0, SVG Export Plug-In . SVG Version: 6.00 Build 0)  -->
<!DOCTYPE svg PUBLIC "-//W3C//DTD SVG 1.1//EN" "http://www.w3.org/Graphics/SVG/1.1/DTD/svg11.dtd">
<svg version="1.1" class="Layer_1" xmlns="http://www.w3.org/2000/svg" xmlns:xlink="http://www.w3.org/1999/xlink" x="0px" y="0px"
	 viewBox="0 0 800 800" enable-background="new 0 0 800 800" xml:space="preserve">
<circle class="animated svg-main-circle" fill="none" stroke="#000000" stroke-width="14" stroke-miterlimit="10" cx="390" cy="430" r="308"/>
<line class="animated svg-line-lg-1" fill="none" stroke="#000000" stroke-width="9" stroke-miterlimit="10" x1="234" y1="205" x2="162" y2="375"/>
<line class="animated svg-line-lg-2" fill="none" stroke="#000000" stroke-width="9" stroke-miterlimit="10" x1="234" y1="647" x2="484" y2="220"/>
<line class="animated svg-line-lg-3" fill="none" stroke="#000000" stroke-width="9" stroke-miterlimit="10" x1="634" y1="447" x2="484" y2="585"/>
<line class="animated svg-line-lg-4" fill="none" stroke="#000000" stroke-width="9" stroke-miterlimit="10" x1="634" y1="447" x2="234" y2="647"/>
<line class="animated svg-line-lg-5" fill="none" stroke="#000000" stroke-width="9" stroke-miterlimit="10" x1="484" y1="585" x2="234" y2="647"/>
<line class="animated svg-line-lg-6" fill="none" stroke="#000000" stroke-width="9" stroke-miterlimit="10" x1="334" y1="423" x2="234" y2="205"/>
<line class="animated svg-line-lg-7" fill="none" stroke="#000000" stroke-width="9" stroke-miterlimit="10" x1="484" y1="220" x2="484" y2="585"/>
<line class="animated svg-line-md-1" fill="none" stroke="#000000" stroke-width="7" stroke-miterlimit="10" x1="363" y1="305.7" x2="217.5" y2="540.5"/>
<line class="animated svg-line-md-2" fill="none" stroke="#000000" stroke-width="7" stroke-miterlimit="10" x1="77.5" y1="188.5" x2="411.5" y2="704.5"/>
<line class="animated svg-line-md-3" fill="none" stroke="#000000" stroke-width="7" stroke-miterlimit="10" x1="441.5" y1="449.5" x2="217.5" y2="540.5"/>
<line class="animated svg-line-md-4" fill="none" stroke="#000000" stroke-width="7" stroke-miterlimit="10" x1="28.5" y1="468.5" x2="77.5" y2="188.5"/>
<line class="animated svg-line-md-5" fill="none" stroke="#000000" stroke-width="7" stroke-miterlimit="10" x1="411.5" y1="704.5" x2="28.5" y2="468.5"/>
<line class="animated svg-line-md-6" fill="none" stroke="#000000" stroke-width="7" stroke-miterlimit="10" x1="361.5" y1="305.7" x2="441.5" y2="449.5"/>
<line class="animated svg-line-md-7" fill="none" stroke="#000000" stroke-width="7" stroke-miterlimit="10" x1="673.7" y1="413" x2="441.5" y2="449.5"/>
<line class="animated svg-line-sm-1" fill="none" stroke="#000000" stroke-width="5" stroke-miterlimit="10" x1="340" y1="63" x2="732.5" y2="321.5"/>
<line class="animated svg-line-sm-2" fill="none" stroke="#000000" stroke-width="5" stroke-miterlimit="10" x1="294.2" y1="171.2" x2="230.5" y2="313.5"/>
<line class="animated svg-line-sm-3" fill="none" stroke="#000000" stroke-width="5" stroke-miterlimit="10" x1="230.5" y1="313.5" x2="771.5" y2="403.5"/>
<line class="animated svg-line-sm-4" fill="none" stroke="#000000" stroke-width="5" stroke-miterlimit="10" x1="294.2" y1="172.5" x2="771.5" y2="403.5"/>
<line class="animated svg-line-sm-5" fill="none" stroke="#000000" stroke-width="5" stroke-miterlimit="10" x1="771.5" y1="403.5" x2="464" y2="661"/>
<line class="animated svg-line-sm-6" fill="none" stroke="#000000" stroke-width="5" stroke-miterlimit="10" x1="585.2" y1="399" x2="363" y2="563.5"/>
<line class="animated svg-line-sm-7" fill="none" stroke="#000000" stroke-width="5" stroke-miterlimit="10" x1="413" y1="172.5" x2="284" y2="261"/>
<line class="animated svg-line-sm-8" fill="none" stroke="#000000" stroke-width="5" stroke-miterlimit="10" x1="546.5" y1="261.5" x2="549" y2="653"/>
<line class="animated svg-line-sm-9" fill="none" stroke="#000000" stroke-width="5" stroke-miterlimit="10" x1="251.5" y1="369.5" x2="363" y2="563.5"/>
<circle class="animated svg-target-point-1 fadeInLeftBig" fill="none" stroke="#000000" stroke-miterlimit="10" cx="413.2" cy="172.2" r="19"/>
<circle class="animated svg-target-point-2 fadeInLeftBig" fill="none" stroke="#000000" stroke-miterlimit="10" cx="251.2" cy="369.2" r="19"/>
<circle class="animated svg-target-point-3 fadeInLeftBig" fill="none" stroke="#000000" stroke-miterlimit="10" cx="585.2" cy="399" r="19"/>
<circle class="animated svg-target-point-4 fadeInLeftBig" fill="none" stroke="#000000" stroke-miterlimit="10" cx="464.2" cy="661.2" r="19"/>
<circle class="animated svg-target-point-5 fadeInLeftBig" fill="none" stroke="#000000" stroke-miterlimit="10" cx="217.5" cy="540.5" r="19"/>
<circle class="animated svg-data-point-lg-1" cx="234.5" cy="205.2" r="12.5"/>
<circle class="animated svg-data-point-lg-2" cx="161.5" cy="375.2" r="12.5"/>
<circle class="animated svg-data-point-lg-3" cx="483.5" cy="220.2" r="12.5"/>
<circle class="animated svg-data-point-lg-4" cx="484.5" cy="585.2" r="12.5"/>
<circle class="animated svg-data-point-lg-5" cx="634.5" cy="447.2" r="12.5"/>
<circle class="animated svg-data-point-lg-6" cx="234.5" cy="647.2" r="12.5"/>
<circle class="animated svg-data-point-lg-7" cx="334.5" cy="423.2" r="12.5"/>
<circle class="animated svg-data-point-md-1" cx="441.7" cy="449" r="10"/>
<circle class="animated svg-data-point-md-2" cx="673.7" cy="413" r="10"/>
<circle class="animated svg-data-point-md-3" cx="363" cy="305.7" r="10"/>
<circle class="animated svg-data-point-md-4" cx="77.7" cy="188" r="10"/>
<circle class="animated svg-data-point-md-5" cx="411.7" cy="704" r="10"/>
<circle class="animated svg-data-point-md-6" cx="28.7" cy="468" r="10"/>
<circle class="animated svg-data-point-md-7" cx="217.7" cy="540" r="10"/>
<circle class="animated svg-data-point-sm-1" cx="294.2" cy="171.2" r="7.5"/>
<circle class="animated svg-data-point-sm-2" cx="284.2" cy="261.2" r="7.5"/>
<circle class="animated svg-data-point-sm-3" cx="413.2" cy="172.2" r="7.5"/>
<circle class="animated svg-data-point-sm-4" cx="340.2" cy="63.2" r="7.5"/>
<circle class="animated svg-data-point-sm-5" cx="732.2" cy="321.2" r="7.5"/>
<circle class="animated svg-data-point-sm-6" cx="771.2" cy="403.2" r="7.5"/>
<circle class="animated svg-data-point-sm-7" cx="464.2" cy="661.2" r="7.5"/>
<circle class="animated svg-data-point-sm-8" cx="549.2" cy="653.2" r="7.5"/>
<circle class="animated svg-data-point-sm-9" cx="546.2" cy="261.2" r="7.5"/>
<circle class="animated svg-data-point-sm-10" cx="363.2" cy="563.2" r="7.5"/>
<circle class="animated svg-data-point-sm-11" cx="585.2" cy="399.2" r="7.5"/>
<circle class="animated svg-data-point-sm-12" cx="230.2" cy="313.2" r="7.5"/>
<circle class="animated svg-data-point-sm-13" cx="251.2" cy="369.2" r="7.5"/>
</svg>
 