<?xml version="1.0" encoding="utf-8"?>
<!-- Generator: Adobe Illustrator 18.0.0, SVG Export Plug-In . SVG Version: 6.00 Build 0)  -->
<!DOCTYPE svg PUBLIC "-//W3C//DTD SVG 1.1//EN" "http://www.w3.org/Graphics/SVG/1.1/DTD/svg11.dtd">
<svg version="1.1" id="Layer_1" xmlns="http://www.w3.org/2000/svg" xmlns:xlink="http://www.w3.org/1999/xlink" x="0px" y="0px"
	 viewBox="0 0 300 300" enable-background="new 0 0 300 300" xml:space="preserve">
<path fill="#42075C" d="M282.9,132.2c-1.1-1.8-5.4-7-7.6-9.6c9.7-24,11.9-57-32.6-72.4c-2.2-0.7-9.8-2.2-12.7-2.8
	c-8.1-24.6-27.8-51.1-71.7-34.1c-2,0.8-7.8,4-10.7,5.7C125.8,5.4,94-2.4,70.9,38.2c-1.2,2.2-4.5,10.6-5.2,12.6
	c-25.5,3.6-54.5,18.2-46,64c0.4,2.3,3,9.9,3.9,12.5c-17.2,18.8-29.7,48.1,5.2,77.9c2,1.7,10.8,7.2,11.7,7.7
	c-0.6,26,9.1,58,56.4,56.4c2.1-0.1,8.5-1.2,11.9-1.8c16.3,20.4,44.7,39.2,80,7c1.4-1.3,5.2-5.8,7.4-8.5c25.4,5.2,58.5,1.5,65.5-45.3
	c0.3-2,0.4-8.6,0.4-12C284.8,196.4,307.4,172.4,282.9,132.2z M246,199.1c-19.1,10.9-32,27.4-39.5,39.1c-1.3,2.1-4.5,8.4-4.5,8.4
	l6.6,1.6c0,0,0.9-2.2,3-5.5l2.7,5.5c2.5,0.3,4.8,0.5,7,0.4l-5.6-11.6c0.6-0.8,1.3-1.6,2.1-2.4l8.5,13.5c2-0.4,4-1,6-2l-10.1-15.9
	c0.7-0.6,1.4-1.3,2.2-1.9l12.9,14.9c1.5-1.1,3.1-2.3,4.8-3.7l-12.8-14.7c1.1-0.7,2.2-1.3,3.3-2l13.8,12.5c1.3-1.6,2.4-3.3,3.4-5.1
	l-11.2-10.2c1.3-0.5,2.6-1,3.9-1.4l9.7,6.2c0.1-0.2,0.1-0.4,0.2-0.6c0,0,0,0,0,0c0.6-1.6,1-4,1.2-5.7L250,216c2.5-0.9,5.2-2,7.9-3.3
	l-0.2,5.7c-0.2,1.4-0.5,5.1-1.3,7.4c0,0,0,0,0,0c-1.7,5.5-4.5,10.9-8.4,14.5c-17.5,16.5-25.6,12.9-56.5,7.3
	c-21.6-3.9-42.1,0.4-55.3,4.6c-2.4,0.8-8.8,3.5-8.8,3.5l4.1,5.4c0,0,2-1,5.4-2.2l-1.7,5.7c1.6,1.9,3.2,3.6,4.9,5l3.7-12.5
	c1-0.2,2.1-0.4,3.2-0.5l-2.7,16c1.8,1.1,3.7,1.9,5.7,2.5l3.3-19.1c0.9,0,1.9-0.1,2.8,0l-0.4,20.4c1.9,0.2,3.9,0.4,6.1,0.5l0.4-20.4
	c1.2,0.1,2.4,0.3,3.6,0.6l2,19.6c2-0.3,4-0.8,6-1.5l-1.7-16.5c1.2,0.4,2.3,0.7,3.5,1.2l3.5,12.9c0.2-0.1,0.4-0.2,0.6-0.3
	c0,0,0,0,0,0c1.6-0.8,3.5-2.3,4.8-3.4l-1.8-6.4c2.7,1,5.8,2,9,2.9l-3.4,3.8c-1,1-3.6,3.6-5.7,4.9c0,0,0,0,0,0
	c-4.8,3.2-10.4,5.6-15.7,6c-23.9,1.7-28-6.1-48.4-29.9C104.1,233.7,85.5,224,72.5,219c-2.3-0.9-9.1-2.8-9.1-2.8l-0.3,6.8
	c0,0,1.8,0.4,4.6,1.4l-4.3,3.1c0.1,2.5,0.4,4.8,0.8,6.9l10-7.2c0.9,0.5,1.9,1,2.9,1.6l-11.5,10.5c0.7,1.9,1.7,3.7,3,5.5l13.8-12.6
	c0.8,0.6,1.5,1.2,2.3,1.8l-12.4,15.3c1.3,1.3,2.8,2.7,4.5,4.1L89.3,238c0.9,0.9,1.7,1.8,2.6,2.8l-10.1,16.1c1.7,1,3.7,1.8,5.7,2.4
	l8.4-13.4c0.7,1.1,1.4,2.1,2.1,3.3l-4.7,11.4c0.2,0,0.4,0.1,0.6,0.1c0,0,0,0,0,0c1.7,0.3,4.2,0.3,5.8,0.2l2.1-5
	c1.4,2.4,3,4.9,4.8,7.4l-5.6,0.8c-1.4,0.1-5.1,0.4-7.5,0c0,0,0,0,0,0c-5.7-0.7-11.5-2.5-15.8-5.6c-19.4-14.2-17.3-22.8-17.5-54.2
	c-0.1-21.9-8-41.3-14.6-53.6c-1.2-2.2-5.1-8-5.1-8l-4.6,5c0,0,1.2,1.6,2.9,4.5l-5.3-0.5c-1.6,2-2.9,3.9-4,5.8l12.4,1.1
	c0.4,1,0.8,2,1.2,3.1l-15.7,0.4c-0.7,1.9-1.2,4-1.4,6.1l18.8-0.5c0.2,0.9,0.4,1.9,0.6,2.9l-19.5,3.4c0.1,1.9,0.4,3.9,0.7,6.1
	l19.5-3.4c0.1,1.2,0.1,2.5,0.1,3.8l-18.3,5.5c0.7,1.9,1.6,3.8,2.7,5.6l15.2-4.6c-0.1,1.3-0.3,2.5-0.6,3.8L34,196.4
	c0.1,0.2,0.3,0.3,0.4,0.5c0,0,0,0,0,0c1.1,1.4,2.9,3,4.2,4l5.1-2.5c-0.5,2.8-0.9,5.9-1.2,9.1l-6.1-4.2c-1.1-0.9-4-3.1-5.5-5
	c0,0,0,0,0,0c-3.8-4.4-6.8-9.6-7.9-14.8c-4.7-23.6,2.6-28.5,23.7-51.8c14.7-16.3,22-35.9,25.4-49.4c0.6-2.4,1.7-9.3,1.7-9.3L67,73.5
	c0,0-0.2,2.5-1.2,6.4L61.7,75c-2.5,0.3-4.8,0.7-6.9,1.3l8.7,10.4c-0.4,0.9-0.8,1.9-1.2,2.9L50.1,78c-1.9,0.9-3.6,2-5.3,3.4
	l14.6,13.8l-1.8,2.1L40.6,85.5c-1.2,1.4-2.5,3-3.8,4.8L53.7,102l-2.3,2.8l-17.7-9.4c-0.9,1.8-1.5,3.8-2,5.8l15.7,8.3
	c-0.9,0.7-1.7,1.4-2.7,2.1l-14-4.6c0,0.2,0,0.4-0.1,0.6c0,0,0,0,0,0c-0.2,1.7,0,4.2,0.2,5.8l7.8,2.6c-2.8,2.2-5.8,4.7-8.8,7.6
	l-1.9-6.5c-0.3-1.4-1.2-5-1.1-7.4c0,0,0,0,0,0c-0.2-5.8,0.7-11.8,3.2-16.5c11.2-21.3,20-20.5,51-25.4c21.7-3.4,39.7-14.1,50.8-22.4
	c2-1.5,7.2-6.2,7.2-6.2l-5.7-3.8c0,0-1.6,1.7-4.5,3.9l-0.3-6.3c-2.2-1.3-4.2-2.3-6.3-3.1l0.7,13.3c-0.9,0.5-1.8,1-2.8,1.5l-2.7-16.3
	c-2-0.4-4.1-0.6-6.3-0.5l3.2,19.4c-0.9,0.3-1.7,0.6-2.6,0.9l-6.4-19.6c-1.8,0.4-3.8,0.9-5.9,1.6l6.4,19.6l-1.9,0.4
	c-0.5,0.1-1.1,0.2-1.6,0.3l-8.4-18.1c-1.8,0.9-3.5,2.1-5.1,3.4l7.1,15.2c-1.2,0-2.4,0.1-3.7,0l-7.7-11.1c-0.1,0.2-0.3,0.3-0.4,0.5
	c0,0,0,0,0,0c-1.2,1.3-2.5,3.3-3.4,4.8l3.8,5.5c-3.3-0.1-6.8,0-10.6,0.3l2.9-6.7c0.7-1.3,2.3-4.6,3.9-6.4c0,0,0,0,0,0
	c3.6-4.5,8.1-8.5,13-10.5c22.2-9.1,28.5-2.8,55.3,13.4c18.8,11.4,39.5,14.8,53.3,15.6c2.5,0.1,9.5-0.1,9.5-0.1l-1.9-6.6
	c0,0-2,0.2-5.4,0.1l3.3-4c-0.8-2.4-1.6-4.6-2.5-6.5l-8.1,9.7c-1-0.2-2.1-0.4-3.2-0.6l8.8-13.5c-1.2-1.7-2.6-3.2-4.3-4.6l-10.7,16.3
	c-0.9-0.3-1.8-0.6-2.6-1l8.5-18.8c-1.6-1-3.4-1.9-5.4-2.8l-8.5,18.7l-3.2-1.8l6.1-19.1c-1.9-0.5-4-0.8-6.1-1l-5.3,16.8
	c-0.9-0.7-1.8-1.4-2.6-2.2l2-14.5c-0.2,0-0.4,0-0.6,0.1c0,0,0,0,0,0c-1.7,0.1-4.1,0.8-5.7,1.2l-1.1,8.1c-2.5-2.3-5.4-4.6-8.6-6.9
	l5.2-2.7c1.3-0.5,4.7-2.1,7.1-2.5c0,0,0,0,0,0c5.6-1.3,11.7-1.5,16.8,0.1c23,7,23.9,15.8,34.4,45.4c7.4,20.7,21.2,36.4,31.5,45.8
	c1.8,1.7,7.4,5.9,7.4,5.9l2.7-6.3c0,0-1.8-1.1-4.4-3.4l5.1-1.1c0.9-2.4,1.6-4.6,2.1-6.7l-12.2,2.6c-0.7-0.8-1.4-1.6-2.1-2.5l15-5.1
	c0.1-2.1-0.1-4.1-0.5-6.3L244.6,93c-0.5-0.8-1-1.6-1.5-2.5l17.9-9.3c-0.7-1.7-1.5-3.6-2.5-5.6l-18.1,9.4c-0.5-1.1-0.9-2.3-1.3-3.4
	l16.4-11.1c-1.2-1.6-2.6-3.1-4.2-4.5l-13.9,9.4c-0.3-1.2-0.5-2.3-0.7-3.5l9.9-9.5c-0.2-0.1-0.3-0.2-0.5-0.3c0,0,0,0,0,0
	c-1.4-1-3.7-1.9-5.2-2.6l-5.1,4.9c-0.5-3.1-1.2-6.4-2.1-9.8l6.4,1.5c1.4,0.4,4.9,1.4,7,2.7c0,0,0,0,0,0c5.1,2.7,9.9,6.5,12.7,10.9
	c13,20.2,8,27.5-3.2,56.8c-7.8,20.5-7.4,41.5-5.6,55.3c0.3,2.5,1.8,9.3,1.8,9.3l6.1-3c0,0-0.7-2.2-1.1-5.8l5.6,2.8
	c2.2-1.3,4.1-2.5,5.8-3.9l-11.9-6c0-1,0-2.1,0.1-3.2l15.5,5.7c1.4-1.5,2.5-3.2,3.6-5.2l-18.4-6.8c0.1-0.9,0.3-1.8,0.5-2.7l20.2,4.2
	c0.6-1.8,1.1-3.7,1.6-5.9l-20.2-4.2l0.9-3.1c0-0.1,0.1-0.2,0.1-0.4l20,1.7c0.1-2-0.1-4.1-0.4-6.1l-16.8-1.4c0.6-1.1,1.1-2.1,1.8-3.2
	l13.6-1.1c-0.1-0.2-0.1-0.4-0.2-0.6c0,0,0,0,0,0c-0.5-1.7-1.6-3.8-2.5-5.3l-6.9,0.6c1.6-2.6,3.2-5.5,4.7-8.7l3.6,4.7
	c0.8,1.2,2.9,4.2,3.7,6.5c0,0,0,0,0,0c2.3,5.3,3.5,11.3,2.9,16.5C281.7,181.1,273.2,183.6,246,199.1z"/>
</svg>
