<?xml version="1.0" encoding="utf-8"?>
<!-- Generator: Adobe Illustrator 18.0.0, SVG Export Plug-In . SVG Version: 6.00 Build 0)  -->
<!DOCTYPE svg PUBLIC "-//W3C//DTD SVG 1.1//EN" "http://www.w3.org/Graphics/SVG/1.1/DTD/svg11.dtd">
<svg version="1.1" id="Layer_1" xmlns="http://www.w3.org/2000/svg" xmlns:xlink="http://www.w3.org/1999/xlink" x="0px" y="0px"
	 viewBox="0 0 538.6 368.5" enable-background="new 0 0 538.6 368.5" xml:space="preserve">
<path fill="#42075C" d="M432.5,162.4c-1.4-2.2-6.6-8.6-9.3-11.8c11.9-29.5,14.6-70-40-88.9c-2.7-0.9-12-2.7-15.6-3.4
	c-9.9-30.2-34.1-62.8-88.1-41.9c-2.5,1-9.6,4.9-13.1,7c-26.8-16.7-65.8-26.3-94.2,23.6c-1.5,2.7-5.5,13-6.4,15.5
	c-31.3,4.4-66.9,22.4-56.5,78.6c0.5,2.8,3.7,12.2,4.8,15.4c-21.1,23.1-36.5,59.1,6.4,95.7c2.5,2.1,13.3,8.8,14.4,9.5
	c-0.7,31.9,11.2,71.2,69.3,69.3c2.6-0.1,10.4-1.5,14.6-2.2c20,25.1,54.9,48.2,98.3,8.6c1.7-1.6,6.4-7.1,9.1-10.4
	c31.2,6.4,71.9,1.8,80.5-55.6c0.4-2.5,0.5-10.6,0.5-14.7C434.9,241.2,462.6,211.8,432.5,162.4z M387.2,244.6
	c-23.5,13.4-39.3,33.7-48.5,48c-1.6,2.6-5.5,10.3-5.5,10.3l8.1,2c0,0,1.1-2.7,3.7-6.8l3.3,6.8c3.1,0.4,5.9,0.6,8.6,0.5l-6.9-14.2
	c0.7-1,1.6-2,2.6-2.9l10.4,16.6c2.5-0.5,4.9-1.2,7.4-2.5L358,282.8c0.9-0.7,1.7-1.6,2.7-2.3l15.8,18.3c1.8-1.4,3.8-2.8,5.9-4.5
	l-15.7-18.1c1.4-0.9,2.7-1.6,4.1-2.5l17,15.4c1.6-2,2.9-4.1,4.2-6.3l-13.8-12.5c1.6-0.6,3.2-1.2,4.8-1.7l11.9,7.6
	c0.1-0.2,0.1-0.5,0.2-0.7l0,0c0.7-2,1.2-4.9,1.5-7l-4.4-3.1c3.1-1.1,6.4-2.5,9.7-4.1l-0.2,7c-0.2,1.7-0.6,6.3-1.6,9.1l0,0
	c-2.1,6.8-5.5,13.4-10.3,17.8c-21.5,20.3-31.4,15.8-69.4,9c-26.5-4.8-51.7,0.5-67.9,5.7c-2.9,1-10.8,4.3-10.8,4.3l5,6.6
	c0,0,2.5-1.2,6.6-2.7l-2.1,7c2,2.3,3.9,4.4,6,6.1l4.5-15.4c1.2-0.2,2.6-0.5,3.9-0.6l-3.3,19.7c2.2,1.4,4.5,2.3,7,3.1l4.1-23.5
	c1.1,0,2.3-0.1,3.4,0l-0.5,25.1c2.3,0.2,4.8,0.5,7.5,0.6l0.5-25.1c1.5,0.1,2.9,0.4,4.4,0.7l2.5,24.1c2.5-0.4,4.9-1,7.4-1.8
	l-2.1-20.3c1.5,0.5,2.8,0.9,4.3,1.5l4.3,15.8c0.2-0.1,0.5-0.2,0.7-0.4l0,0c2-1,4.3-2.8,5.9-4.2l-2.2-7.9c3.3,1.2,7.1,2.5,11.1,3.6
	l-4.2,4.7c-1.2,1.2-4.4,4.4-7,6l0,0c-5.9,3.9-12.8,6.9-19.3,7.4c-29.4,2.1-34.4-7.5-59.5-36.7c-17.7-20.5-40.5-32.4-56.5-38.6
	c-2.8-1.1-11.2-3.4-11.2-3.4l-0.4,8.4c0,0,2.2,0.5,5.7,1.7l-5.3,3.8c0.1,3.1,0.5,5.9,1,8.5l12.3-8.8c1.1,0.6,2.3,1.2,3.6,2
	l-14.1,12.9c0.9,2.3,2.1,4.5,3.7,6.8l17-15.5c1,0.7,1.8,1.5,2.8,2.2l-15.2,18.8c1.6,1.6,3.4,3.3,5.5,5l15.4-18.9
	c1.1,1.1,2.1,2.2,3.2,3.4l-12.4,19.8c2.1,1.2,4.5,2.2,7,2.9l10.3-16.5c0.9,1.4,1.7,2.6,2.6,4.1l-5.8,14c0.2,0,0.5,0.1,0.7,0.1l0,0
	c2.1,0.4,5.2,0.4,7.1,0.2l2.6-6.1c1.7,2.9,3.7,6,5.9,9.1l-6.9,1c-1.7,0.1-6.3,0.5-9.2,0l0,0c-7-0.9-14.1-3.1-19.4-6.9
	c-23.8-17.4-21.3-28-21.5-66.6c-0.1-26.9-9.8-50.7-17.9-65.8c-1.5-2.7-6.3-9.8-6.3-9.8l-5.7,6.1c0,0,1.5,2,3.6,5.5l-6.5-0.6
	c-2,2.5-3.6,4.8-4.9,7.1l15.2,1.4c0.5,1.2,1,2.5,1.5,3.8l-19.3,0.5c-0.9,2.3-1.5,4.9-1.7,7.5l23.1-0.6c0.2,1.1,0.5,2.3,0.7,3.6
	l-24,4.2c0.1,2.3,0.5,4.8,0.9,7.5l24-4.2c0.1,1.5,0.1,3.1,0.1,4.7l-22.5,6.8c0.9,2.3,2,4.7,3.3,6.9l18.7-5.7
	c-0.1,1.6-0.4,3.1-0.7,4.7l-13.8,6.9c0.1,0.2,0.4,0.4,0.5,0.6l0,0c1.4,1.7,3.6,3.7,5.2,4.9l6.3-3.1c-0.6,3.4-1.1,7.2-1.5,11.2
	l-7.5-5.2c-1.4-1.1-4.9-3.8-6.8-6.1l0,0c-4.7-5.4-8.4-11.8-9.7-18.2c-5.8-29,3.2-35,29.1-63.6c18.1-20,27-44.1,31.2-60.7
	c0.7-2.9,2.1-11.4,2.1-11.4l-8.4,0.6c0,0-0.2,3.1-1.5,7.9l-5-6c-3.1,0.4-5.9,0.9-8.5,1.6l10.7,12.8c-0.5,1.1-1,2.3-1.5,3.6l-15-14.2
	c-2.3,1.1-4.4,2.5-6.5,4.2l17.9,17l-2.2,2.6L134.9,105c-1.5,1.7-3.1,3.7-4.7,5.9l20.8,14.4l-2.8,3.4l-21.7-11.5
	c-1.1,2.2-1.8,4.7-2.5,7.1l19.3,10.2c-1.1,0.9-2.1,1.7-3.3,2.6l-17.2-5.7c0,0.2,0,0.5-0.1,0.7l0,0c-0.2,2.1,0,5.2,0.2,7.1l9.6,3.2
	c-3.4,2.7-7.1,5.8-10.8,9.3l-2.3-8c-0.4-1.7-1.5-6.1-1.4-9.1l0,0c-0.2-7.1,0.9-14.5,3.9-20.3c13.8-26.2,24.6-25.2,62.6-31.2
	c26.7-4.2,48.8-17.3,62.4-27.5c2.5-1.8,8.8-7.6,8.8-7.6l-7-4.7c0,0-2,2.1-5.5,4.8l-0.4-7.7c-2.7-1.6-5.2-2.8-7.7-3.8l0.9,16.3
	c-1.1,0.6-2.2,1.2-3.4,1.8l-3.3-20c-2.5-0.5-5-0.7-7.7-0.6l3.9,23.8c-1.1,0.4-2.1,0.7-3.2,1.1l-7.9-24.1c-2.2,0.5-4.7,1.1-7.2,2
	l7.9,24.1l-2.3,0.5c-0.6,0.1-1.4,0.2-2,0.4l-10.3-22.2c-2.2,1.1-4.3,2.6-6.3,4.2l8.7,18.7c-1.5,0-2.9,0.1-4.5,0L188.8,49
	c-0.1,0.2-0.4,0.4-0.5,0.6l0,0c-1.5,1.6-3.1,4.1-4.2,5.9l4.7,6.8c-4.1-0.1-8.4,0-13,0.4l3.6-8.2c0.9-1.6,2.8-5.7,4.8-7.9l0,0
	c4.4-5.5,9.9-10.4,16-12.9c27.3-11.2,35-3.4,67.9,16.5c23.1,14,48.5,18.2,65.5,19.2c3.1,0.1,11.7-0.1,11.7-0.1l-2.3-8.1
	c0,0-2.5,0.2-6.6,0.1l4.1-4.9c-1-2.9-2-5.7-3.1-8l-9.9,11.9c-1.2-0.2-2.6-0.5-3.9-0.7l10.8-16.6c-1.5-2.1-3.2-3.9-5.3-5.7l-13.1,20
	c-1.1-0.4-2.2-0.7-3.2-1.2L323,32.9c-2-1.2-4.2-2.3-6.6-3.4l-10.4,23l-3.9-2.2l7.5-23.5c-2.3-0.6-4.9-1-7.5-1.2l-6.5,20.6
	c-1.1-0.9-2.2-1.7-3.2-2.7l2.5-17.8c-0.2,0-0.5,0-0.7,0.1l0,0c-2.1,0.1-5,1-7,1.5l-1.4,9.9c-3.1-2.8-6.6-5.7-10.6-8.5l6.4-3.3
	c1.6-0.6,5.8-2.6,8.7-3.1l0,0c6.9-1.6,14.4-1.8,20.6,0.1c28.3,8.6,29.4,19.4,42.3,55.8c9.1,25.4,26,44.7,38.7,56.3
	c2.2,2.1,9.1,7.2,9.1,7.2l3.3-7.7c0,0-2.2-1.4-5.4-4.2l6.3-1.4c1.1-2.9,2-5.7,2.6-8.2l-15,3.2c-0.9-1-1.7-2-2.6-3.1l18.4-6.3
	c0.1-2.6-0.1-5-0.6-7.7l-22.4,7.9c-0.6-1-1.2-2-1.8-3.1l22-11.4c-0.9-2.1-1.8-4.4-3.1-6.9l-22.2,11.5c-0.6-1.4-1.1-2.8-1.6-4.2
	l20.1-13.6c-1.5-2-3.2-3.8-5.2-5.5l-17.1,11.5c-0.4-1.5-0.6-2.8-0.9-4.3l12.2-11.7c-0.2-0.1-0.4-0.2-0.6-0.4l0,0
	c-1.7-1.2-4.5-2.3-6.4-3.2l-6.3,6c-0.6-3.8-1.5-7.9-2.6-12l7.9,1.8c1.7,0.5,6,1.7,8.6,3.3l0,0c6.3,3.3,12.2,8,15.6,13.4
	c16,24.8,9.8,33.8-3.9,69.8c-9.6,25.2-9.1,51-6.9,67.9c0.4,3.1,2.2,11.4,2.2,11.4l7.5-3.7c0,0-0.9-2.7-1.4-7.1l6.9,3.4
	c2.7-1.6,5-3.1,7.1-4.8l-14.6-7.4c0-1.2,0-2.6,0.1-3.9l19,7c1.7-1.8,3.1-3.9,4.4-6.4l-22.6-8.4c0.1-1.1,0.4-2.2,0.6-3.3l24.8,5.2
	c0.7-2.2,1.4-4.5,2-7.2l-24.8-5.2l1.1-3.8c0-0.1,0.1-0.2,0.1-0.5l24.6,2.1c0.1-2.5-0.1-5-0.5-7.5l-20.6-1.7c0.7-1.4,1.4-2.6,2.2-3.9
	l16.7-1.4c-0.1-0.2-0.1-0.5-0.2-0.7l0,0c-0.6-2.1-2-4.7-3.1-6.5l-8.5,0.7c2-3.2,3.9-6.8,5.8-10.7l4.4,5.8c1,1.5,3.6,5.2,4.5,8l0,0
	c2.8,6.5,4.3,13.9,3.6,20.3C431.1,222.5,420.6,225.5,387.2,244.6z"/>
</svg>
